<svg xmlns="http://www.w3.org/2000/svg" width="300" height="300" viewBox="0 0 300 300">
  <rect width="300" height="300" fill="#fff8f2"/>
  <g opacity="0.9" stroke="#ffd0bd" stroke-width="2">
    <path fill="#ffe1d6" d="M40 40h30a10 10 0 1 1 0 20h-10v10a10 10 0 1 1-20 0v-10H30a10 10 0 1 1 0-20h10v-10a10 10 0 1 1 20 0v10z"/>
    <path fill="#e9f8f4" d="M160 60h30a10 10 0 1 1 0 20h-10v10a10 10 0 1 1-20 0v-10h-10a10 10 0 1 1 0-20h10v-10a10 10 0 1 1 20 0v10z"/>
    <path fill="#ffe9e3" d="M90 170h30a10 10 0 1 1 0 20h-10v10a10 10 0 1 1-20 0v-10H80a10 10 0 1 1 0-20h10v-10a10 10 0 1 1 20 0v10z"/>
    <path fill="#fff5ef" d="M210 190h28a10 10 0 1 1 0 20h-8v8a10 10 0 1 1-20 0v-8h-8a10 10 0 1 1 0-20h8v-8a10 10 0 1 1 20 0v8z"/>
  </g>
</svg>